<mxfile host="app.diagrams.net" modified="2023-11-22T17:56:23.098Z" agent="Mozilla/5.0 (Windows NT 10.0; Win64; x64) AppleWebKit/537.36 (KHTML, like Gecko) Chrome/119.0.0.0 Safari/537.36" etag="p7MzAPsOlAqsvQa4gOrU" version="22.1.3" type="device">
  <diagram id="C5RBs43oDa-KdzZeNtuy" name="Page-1">
    <mxGraphModel dx="1434" dy="900" grid="1" gridSize="10" guides="1" tooltips="1" connect="1" arrows="1" fold="1" page="1" pageScale="1" pageWidth="827" pageHeight="1169" math="0" shadow="0">
      <root>
        <mxCell id="WIyWlLk6GJQsqaUBKTNV-0" />
        <mxCell id="WIyWlLk6GJQsqaUBKTNV-1" parent="WIyWlLk6GJQsqaUBKTNV-0" />
        <mxCell id="t3g2tp6PJtkDbxABG7ZZ-4" value="" style="edgeStyle=orthogonalEdgeStyle;rounded=0;orthogonalLoop=1;jettySize=auto;html=1;" edge="1" parent="WIyWlLk6GJQsqaUBKTNV-1" source="t3g2tp6PJtkDbxABG7ZZ-1" target="t3g2tp6PJtkDbxABG7ZZ-2">
          <mxGeometry relative="1" as="geometry" />
        </mxCell>
        <mxCell id="t3g2tp6PJtkDbxABG7ZZ-1" value="Есть денюжка - идём в кино" style="strokeWidth=2;html=1;shape=mxgraph.flowchart.terminator;whiteSpace=wrap;" vertex="1" parent="WIyWlLk6GJQsqaUBKTNV-1">
          <mxGeometry x="260" y="60" width="280" height="60" as="geometry" />
        </mxCell>
        <mxCell id="t3g2tp6PJtkDbxABG7ZZ-8" value="" style="edgeStyle=orthogonalEdgeStyle;rounded=0;orthogonalLoop=1;jettySize=auto;html=1;" edge="1" parent="WIyWlLk6GJQsqaUBKTNV-1" source="t3g2tp6PJtkDbxABG7ZZ-2" target="t3g2tp6PJtkDbxABG7ZZ-5">
          <mxGeometry relative="1" as="geometry" />
        </mxCell>
        <mxCell id="t3g2tp6PJtkDbxABG7ZZ-2" value="Выбираем ТЦ" style="rounded=0;whiteSpace=wrap;html=1;" vertex="1" parent="WIyWlLk6GJQsqaUBKTNV-1">
          <mxGeometry x="340" y="190" width="120" height="60" as="geometry" />
        </mxCell>
        <mxCell id="t3g2tp6PJtkDbxABG7ZZ-10" style="edgeStyle=orthogonalEdgeStyle;rounded=0;orthogonalLoop=1;jettySize=auto;html=1;exitX=1;exitY=0.5;exitDx=0;exitDy=0;exitPerimeter=0;entryX=1;entryY=0.5;entryDx=0;entryDy=0;" edge="1" parent="WIyWlLk6GJQsqaUBKTNV-1" source="t3g2tp6PJtkDbxABG7ZZ-5" target="t3g2tp6PJtkDbxABG7ZZ-2">
          <mxGeometry relative="1" as="geometry" />
        </mxCell>
        <mxCell id="t3g2tp6PJtkDbxABG7ZZ-19" value="" style="edgeStyle=orthogonalEdgeStyle;rounded=0;orthogonalLoop=1;jettySize=auto;html=1;" edge="1" parent="WIyWlLk6GJQsqaUBKTNV-1" source="t3g2tp6PJtkDbxABG7ZZ-5" target="t3g2tp6PJtkDbxABG7ZZ-18">
          <mxGeometry relative="1" as="geometry" />
        </mxCell>
        <mxCell id="t3g2tp6PJtkDbxABG7ZZ-5" value="ТЦ нам нравится?" style="strokeWidth=2;html=1;shape=mxgraph.flowchart.decision;whiteSpace=wrap;" vertex="1" parent="WIyWlLk6GJQsqaUBKTNV-1">
          <mxGeometry x="320" y="320" width="160" height="140" as="geometry" />
        </mxCell>
        <mxCell id="t3g2tp6PJtkDbxABG7ZZ-11" value="Нет" style="text;html=1;strokeColor=none;fillColor=none;align=center;verticalAlign=middle;whiteSpace=wrap;rounded=0;" vertex="1" parent="WIyWlLk6GJQsqaUBKTNV-1">
          <mxGeometry x="450" y="340" width="60" height="30" as="geometry" />
        </mxCell>
        <mxCell id="t3g2tp6PJtkDbxABG7ZZ-21" style="edgeStyle=orthogonalEdgeStyle;rounded=0;orthogonalLoop=1;jettySize=auto;html=1;entryX=0;entryY=0.5;entryDx=0;entryDy=0;" edge="1" parent="WIyWlLk6GJQsqaUBKTNV-1" source="t3g2tp6PJtkDbxABG7ZZ-18" target="t3g2tp6PJtkDbxABG7ZZ-2">
          <mxGeometry relative="1" as="geometry">
            <Array as="points">
              <mxPoint x="250" y="555" />
              <mxPoint x="250" y="220" />
            </Array>
          </mxGeometry>
        </mxCell>
        <mxCell id="t3g2tp6PJtkDbxABG7ZZ-24" value="" style="edgeStyle=orthogonalEdgeStyle;rounded=0;orthogonalLoop=1;jettySize=auto;html=1;" edge="1" parent="WIyWlLk6GJQsqaUBKTNV-1" source="t3g2tp6PJtkDbxABG7ZZ-18" target="t3g2tp6PJtkDbxABG7ZZ-23">
          <mxGeometry relative="1" as="geometry" />
        </mxCell>
        <mxCell id="t3g2tp6PJtkDbxABG7ZZ-18" value="В ТЦ есть кино?" style="html=1;whiteSpace=wrap;aspect=fixed;shape=isoRectangle;" vertex="1" parent="WIyWlLk6GJQsqaUBKTNV-1">
          <mxGeometry x="325" y="510" width="150" height="90" as="geometry" />
        </mxCell>
        <mxCell id="t3g2tp6PJtkDbxABG7ZZ-20" value="Да" style="text;html=1;strokeColor=none;fillColor=none;align=center;verticalAlign=middle;whiteSpace=wrap;rounded=0;" vertex="1" parent="WIyWlLk6GJQsqaUBKTNV-1">
          <mxGeometry x="400" y="470" width="60" height="30" as="geometry" />
        </mxCell>
        <mxCell id="t3g2tp6PJtkDbxABG7ZZ-22" value="Нет" style="text;html=1;strokeColor=none;fillColor=none;align=center;verticalAlign=middle;whiteSpace=wrap;rounded=0;" vertex="1" parent="WIyWlLk6GJQsqaUBKTNV-1">
          <mxGeometry x="265" y="520" width="60" height="30" as="geometry" />
        </mxCell>
        <mxCell id="t3g2tp6PJtkDbxABG7ZZ-28" value="" style="edgeStyle=orthogonalEdgeStyle;rounded=0;orthogonalLoop=1;jettySize=auto;html=1;" edge="1" parent="WIyWlLk6GJQsqaUBKTNV-1" source="t3g2tp6PJtkDbxABG7ZZ-23" target="t3g2tp6PJtkDbxABG7ZZ-27">
          <mxGeometry relative="1" as="geometry" />
        </mxCell>
        <mxCell id="t3g2tp6PJtkDbxABG7ZZ-23" value="Заходим на сайт кинотеатра" style="rounded=0;whiteSpace=wrap;html=1;" vertex="1" parent="WIyWlLk6GJQsqaUBKTNV-1">
          <mxGeometry x="340" y="650" width="120" height="60" as="geometry" />
        </mxCell>
        <mxCell id="t3g2tp6PJtkDbxABG7ZZ-30" style="edgeStyle=orthogonalEdgeStyle;rounded=0;orthogonalLoop=1;jettySize=auto;html=1;entryX=1;entryY=0.5;entryDx=0;entryDy=0;" edge="1" parent="WIyWlLk6GJQsqaUBKTNV-1" source="t3g2tp6PJtkDbxABG7ZZ-27" target="t3g2tp6PJtkDbxABG7ZZ-2">
          <mxGeometry relative="1" as="geometry">
            <Array as="points">
              <mxPoint x="580" y="825" />
              <mxPoint x="580" y="220" />
            </Array>
          </mxGeometry>
        </mxCell>
        <mxCell id="t3g2tp6PJtkDbxABG7ZZ-33" value="" style="edgeStyle=orthogonalEdgeStyle;rounded=0;orthogonalLoop=1;jettySize=auto;html=1;" edge="1" parent="WIyWlLk6GJQsqaUBKTNV-1" source="t3g2tp6PJtkDbxABG7ZZ-27" target="t3g2tp6PJtkDbxABG7ZZ-32">
          <mxGeometry relative="1" as="geometry" />
        </mxCell>
        <mxCell id="t3g2tp6PJtkDbxABG7ZZ-27" value="Есть оплата онлайн?" style="rhombus;whiteSpace=wrap;html=1;" vertex="1" parent="WIyWlLk6GJQsqaUBKTNV-1">
          <mxGeometry x="320" y="760" width="160" height="130" as="geometry" />
        </mxCell>
        <mxCell id="t3g2tp6PJtkDbxABG7ZZ-29" style="edgeStyle=orthogonalEdgeStyle;rounded=0;orthogonalLoop=1;jettySize=auto;html=1;exitX=0.5;exitY=1;exitDx=0;exitDy=0;" edge="1" parent="WIyWlLk6GJQsqaUBKTNV-1" source="t3g2tp6PJtkDbxABG7ZZ-27" target="t3g2tp6PJtkDbxABG7ZZ-27">
          <mxGeometry relative="1" as="geometry" />
        </mxCell>
        <mxCell id="t3g2tp6PJtkDbxABG7ZZ-31" value="Нет" style="text;html=1;strokeColor=none;fillColor=none;align=center;verticalAlign=middle;whiteSpace=wrap;rounded=0;" vertex="1" parent="WIyWlLk6GJQsqaUBKTNV-1">
          <mxGeometry x="510" y="790" width="60" height="30" as="geometry" />
        </mxCell>
        <mxCell id="t3g2tp6PJtkDbxABG7ZZ-37" value="" style="edgeStyle=orthogonalEdgeStyle;rounded=0;orthogonalLoop=1;jettySize=auto;html=1;" edge="1" parent="WIyWlLk6GJQsqaUBKTNV-1" source="t3g2tp6PJtkDbxABG7ZZ-32" target="t3g2tp6PJtkDbxABG7ZZ-36">
          <mxGeometry relative="1" as="geometry" />
        </mxCell>
        <mxCell id="t3g2tp6PJtkDbxABG7ZZ-32" value="Выбираем фильм" style="rounded=0;whiteSpace=wrap;html=1;" vertex="1" parent="WIyWlLk6GJQsqaUBKTNV-1">
          <mxGeometry x="340" y="940" width="120" height="60" as="geometry" />
        </mxCell>
        <mxCell id="t3g2tp6PJtkDbxABG7ZZ-34" value="Да" style="text;html=1;strokeColor=none;fillColor=none;align=center;verticalAlign=middle;whiteSpace=wrap;rounded=0;" vertex="1" parent="WIyWlLk6GJQsqaUBKTNV-1">
          <mxGeometry x="400" y="610" width="60" height="30" as="geometry" />
        </mxCell>
        <mxCell id="t3g2tp6PJtkDbxABG7ZZ-35" value="Да" style="text;html=1;strokeColor=none;fillColor=none;align=center;verticalAlign=middle;whiteSpace=wrap;rounded=0;" vertex="1" parent="WIyWlLk6GJQsqaUBKTNV-1">
          <mxGeometry x="400" y="900" width="60" height="30" as="geometry" />
        </mxCell>
        <mxCell id="t3g2tp6PJtkDbxABG7ZZ-39" value="" style="edgeStyle=orthogonalEdgeStyle;rounded=0;orthogonalLoop=1;jettySize=auto;html=1;" edge="1" parent="WIyWlLk6GJQsqaUBKTNV-1" source="t3g2tp6PJtkDbxABG7ZZ-36" target="t3g2tp6PJtkDbxABG7ZZ-38">
          <mxGeometry relative="1" as="geometry" />
        </mxCell>
        <mxCell id="t3g2tp6PJtkDbxABG7ZZ-36" value="Выбираем места" style="rounded=0;whiteSpace=wrap;html=1;" vertex="1" parent="WIyWlLk6GJQsqaUBKTNV-1">
          <mxGeometry x="340" y="1040" width="120" height="60" as="geometry" />
        </mxCell>
        <mxCell id="t3g2tp6PJtkDbxABG7ZZ-41" value="" style="edgeStyle=orthogonalEdgeStyle;rounded=0;orthogonalLoop=1;jettySize=auto;html=1;" edge="1" parent="WIyWlLk6GJQsqaUBKTNV-1" source="t3g2tp6PJtkDbxABG7ZZ-38" target="t3g2tp6PJtkDbxABG7ZZ-40">
          <mxGeometry relative="1" as="geometry" />
        </mxCell>
        <mxCell id="t3g2tp6PJtkDbxABG7ZZ-38" value="Добираемся до места" style="rounded=0;whiteSpace=wrap;html=1;" vertex="1" parent="WIyWlLk6GJQsqaUBKTNV-1">
          <mxGeometry x="340" y="1140" width="120" height="60" as="geometry" />
        </mxCell>
        <mxCell id="t3g2tp6PJtkDbxABG7ZZ-44" value="" style="edgeStyle=orthogonalEdgeStyle;rounded=0;orthogonalLoop=1;jettySize=auto;html=1;" edge="1" parent="WIyWlLk6GJQsqaUBKTNV-1" source="t3g2tp6PJtkDbxABG7ZZ-40" target="t3g2tp6PJtkDbxABG7ZZ-42">
          <mxGeometry relative="1" as="geometry" />
        </mxCell>
        <mxCell id="t3g2tp6PJtkDbxABG7ZZ-40" value="Пока фильм идёт" style="shape=hexagon;perimeter=hexagonPerimeter2;whiteSpace=wrap;html=1;fixedSize=1;" vertex="1" parent="WIyWlLk6GJQsqaUBKTNV-1">
          <mxGeometry x="340" y="1250" width="120" height="80" as="geometry" />
        </mxCell>
        <mxCell id="t3g2tp6PJtkDbxABG7ZZ-43" style="edgeStyle=orthogonalEdgeStyle;rounded=0;orthogonalLoop=1;jettySize=auto;html=1;entryX=0;entryY=0.5;entryDx=0;entryDy=0;" edge="1" parent="WIyWlLk6GJQsqaUBKTNV-1" source="t3g2tp6PJtkDbxABG7ZZ-42" target="t3g2tp6PJtkDbxABG7ZZ-40">
          <mxGeometry relative="1" as="geometry">
            <Array as="points">
              <mxPoint x="270" y="1400" />
              <mxPoint x="270" y="1290" />
            </Array>
          </mxGeometry>
        </mxCell>
        <mxCell id="t3g2tp6PJtkDbxABG7ZZ-42" value="Смотрим" style="rounded=0;whiteSpace=wrap;html=1;" vertex="1" parent="WIyWlLk6GJQsqaUBKTNV-1">
          <mxGeometry x="340" y="1370" width="120" height="60" as="geometry" />
        </mxCell>
        <mxCell id="t3g2tp6PJtkDbxABG7ZZ-46" value="Идём домой" style="strokeWidth=2;html=1;shape=mxgraph.flowchart.terminator;whiteSpace=wrap;" vertex="1" parent="WIyWlLk6GJQsqaUBKTNV-1">
          <mxGeometry x="560" y="1260" width="100" height="60" as="geometry" />
        </mxCell>
        <mxCell id="t3g2tp6PJtkDbxABG7ZZ-47" style="edgeStyle=orthogonalEdgeStyle;rounded=0;orthogonalLoop=1;jettySize=auto;html=1;entryX=0;entryY=0.5;entryDx=0;entryDy=0;entryPerimeter=0;" edge="1" parent="WIyWlLk6GJQsqaUBKTNV-1" source="t3g2tp6PJtkDbxABG7ZZ-40" target="t3g2tp6PJtkDbxABG7ZZ-46">
          <mxGeometry relative="1" as="geometry" />
        </mxCell>
      </root>
    </mxGraphModel>
  </diagram>
</mxfile>
